<svg xmlns="http://www.w3.org/2000/svg">
  <symbol id="filter" viewBox="0 0 13 12" fill="none">
    <path fill-rule="evenodd" clip-rule="evenodd" d="M2.944 2.8742C2.944 2.50966 3.08881 2.16005 3.34658 1.90228C3.60435 1.64451 3.95396 1.4997 4.3185 1.4997C4.68304 1.4997 5.03265 1.64451 5.29042 1.90228C5.54819 2.16005 5.693 2.50966 5.693 2.8742C5.693 3.23887 5.54813 3.58861 5.29027 3.84647C5.03241 4.10434 4.68267 4.2492 4.318 4.2492C3.95333 4.2492 3.60359 4.10434 3.34573 3.84647C3.08787 3.58861 2.944 3.23887 2.944 2.8742ZM1.543 3.6242H0V2.1242H1.542C1.70715 1.51438 2.06851 0.975911 2.57026 0.591974C3.072 0.208037 3.68621 0 4.318 0C4.94979 0 5.564 0.208037 6.06574 0.591974C6.56749 0.975911 6.92885 1.51438 7.094 2.1242H12.953V3.6242H7.093C6.92721 4.23317 6.56571 4.7707 6.06423 5.15391C5.56275 5.53711 4.94913 5.74472 4.318 5.74472C3.68687 5.74472 3.07325 5.53711 2.57177 5.15391C2.07029 4.7707 1.70879 4.23317 1.543 3.6242ZM5.927 8.9702H0V7.4702H5.927C6.09162 6.8666 6.45016 6.33389 6.94736 5.95413C7.44457 5.57437 8.05286 5.36864 8.6785 5.36864C9.30414 5.36864 9.91243 5.57437 10.4096 5.95413C10.9068 6.33389 11.2654 6.8666 11.43 7.4702H12.953V8.9702H11.43C11.2654 9.5738 10.9068 10.1065 10.4096 10.4863C9.91243 10.866 9.30414 11.0718 8.6785 11.0718C8.05286 11.0718 7.44457 10.866 6.94736 10.4863C6.45016 10.1065 6.09162 9.5738 5.927 8.9702ZM7.327 8.2202C7.327 7.86189 7.46934 7.51826 7.7227 7.2649C7.97606 7.01154 8.31969 6.8692 8.678 6.8692C9.03631 6.8692 9.37994 7.01154 9.6333 7.2649C9.88666 7.51826 10.029 7.86189 10.029 8.2202C10.029 8.57838 9.88672 8.92188 9.63345 9.17515C9.38018 9.42842 9.03668 9.5707 8.6785 9.5707C8.32032 9.5707 7.97682 9.42842 7.72355 9.17515C7.47028 8.92188 7.327 8.57838 7.327 8.2202Z" fill="currentColor"/>
  </symbol>
  <symbol id="sort" viewBox="0 0 14 14" fill="none">
    <path fill-rule="evenodd" clip-rule="evenodd" d="M3.37831 0L6.75662 3.35964L5.6989 4.42324L4.12831 2.86132V12.2077H2.62831V2.86132L1.05772 4.42324L0 3.35964L3.37831 0ZM9.56606 10.4042V1.05773H11.0661V10.4042L12.6367 8.84221L13.6945 9.90581L10.3161 13.2655L6.9378 9.90581L7.99551 8.84221L9.56606 10.4042Z" fill="currentColor"/>
  </symbol>
  <symbol id="success" viewBox="0 0 12 12" fill="none">
    <path d="M6 11C8.76142 11 11 8.76142 11 6C11 3.23858 8.76142 1 6 1C3.23858 1 1 3.23858 1 6C1 8.76142 3.23858 11 6 11Z" stroke="white" stroke-linecap="round" stroke-linejoin="round"/>
    <path d="M8 5L5.38889 7.66667L4 6.28139" stroke="white" stroke-linecap="round" stroke-linejoin="round"/>
  </symbol>

</svg>
